<svg xmlns="http://www.w3.org/2000/svg" width="190.427" height="28.559"><defs><clipPath id="a"><path data-name="Rectángulo 229" d="M0 0h190.427v28.559H0z"/></clipPath></defs><g data-name="Grupo 247" clip-path="url(#a)"><path data-name="Trazado 154" d="M75.413 19.57a8.049 8.049 0 1 1-8.049-8.049 8.049 8.049 0 0 1 8.049 8.049" fill="#e9661e"/><path data-name="Trazado 155" d="M155.181 25.667a2.567 2.567 0 0 1-1.585-.507 4.59 4.59 0 0 1-.289-2.1V.362q-5.116 1.085-7.64 1.446v1.157a4.323 4.323 0 0 1 2.236.651 3.6 3.6 0 0 1 .361 2.023v4.7l-1.585-.144a12.535 12.535 0 0 0-4.253.723 9.749 9.749 0 0 0-3.387 2.1 9.524 9.524 0 0 0-2.308 3.107 9.284 9.284 0 0 0-.793 3.761 9.116 9.116 0 0 0 .793 3.831 7.5 7.5 0 0 0 1.947 2.676 8.943 8.943 0 0 0 2.594 1.59 6.839 6.839 0 0 0 2.666.579 4.269 4.269 0 0 0 2.019-.724l2.306-1.518v2.242a60.147 60.147 0 0 1 7.785-1.518v-1.3Zm-6.919-.8a3.7 3.7 0 0 1-2.162.65 3.185 3.185 0 0 1-1.442-.362 3.851 3.851 0 0 1-1.513-1.156 6.745 6.745 0 0 1-1.153-2.1 8.747 8.747 0 0 1-.506-3.036 12.2 12.2 0 0 1 .506-3.687 6.784 6.784 0 0 1 1.153-2.1 3.627 3.627 0 0 1 2.306-1.228 2.7 2.7 0 0 1 1.587.505 3.255 3.255 0 0 1 1.225 1.518Z" fill-rule="evenodd"/><path data-name="Trazado 156" d="m98.385 4.702.5.216v5.712h3.892a1.177 1.177 0 0 1 .289 1.013 1.007 1.007 0 0 1-.506.867h-3.675v9.761a5.338 5.338 0 0 0 .866 2.892 1.946 1.946 0 0 0 1.441.507 4.945 4.945 0 0 0 1.945-.434l.361 1.372-3.172 1.519a4.925 4.925 0 0 1-1.585.434 6.35 6.35 0 0 1-2.019-.29 3.583 3.583 0 0 1-1.509-.869 3.806 3.806 0 0 1-.937-1.592 6.277 6.277 0 0 1-.361-2.241V12.507h-2.449l-.217-.433 1.082-1.446h1.585V7.736Z" fill-rule="evenodd"/><path data-name="Trazado 157" d="M106.457 15.327a2.808 2.808 0 0 0-.432-1.88 3.7 3.7 0 0 0-1.73-.723V11.64a61.048 61.048 0 0 0 7.136-1.518v4.192h.143a12.107 12.107 0 0 1 2.162-2.964 3.229 3.229 0 0 1 2.163-1.156 2.784 2.784 0 0 1 1.946.723 2.141 2.141 0 0 1 .721 1.663 3.122 3.122 0 0 1-.577 1.88 2.539 2.539 0 0 1-1.37 1.084 1.338 1.338 0 0 1-1.224-.145 2.942 2.942 0 0 0-1.8-.867 1.632 1.632 0 0 0-1.081.433 3.7 3.7 0 0 0-1.081 1.663v7.3q0 1.807.5 2.241a5.358 5.358 0 0 0 2.74.579v1.3h-10.74v-1.299a3.288 3.288 0 0 0 2.018-.579 3.371 3.371 0 0 0 .5-2.241Z" fill-rule="evenodd"/><path data-name="Trazado 158" d="M135.433 25.015a3.829 3.829 0 0 1-1.37.361 1.045 1.045 0 0 1-.865-.505 3.706 3.706 0 0 1-.361-1.881v-6.506a7.973 7.973 0 0 0-.432-2.892 4.27 4.27 0 0 0-1.658-2.241 3.666 3.666 0 0 0-1.658-.866 7.315 7.315 0 0 0-2.162-.29 15.882 15.882 0 0 0-3.532 1.156 18.505 18.505 0 0 0-2.954 1.664q-1.371 1.013-1.37 1.879a1.627 1.627 0 0 0 .792 1.3 2.586 2.586 0 0 0 1.659.65 1.583 1.583 0 0 0 1.009-.288 2.57 2.57 0 0 0 .576-1.085 6.694 6.694 0 0 1 1.154-2.676 1.653 1.653 0 0 1 1.3-.723 1.975 1.975 0 0 1 1.731 1.012 5.211 5.211 0 0 1 .648 2.82v1.229a13.374 13.374 0 0 1-2.594 1.229l-3.6 1.372a5.761 5.761 0 0 0-2.308 1.374 3.63 3.63 0 0 0-.721 2.386 4.678 4.678 0 0 0 .361 1.807 4.931 4.931 0 0 0 1.081 1.59 4.313 4.313 0 0 0 1.658 1.156 4.914 4.914 0 0 0 2.234.507q.72 0 4.108-2.315a3.261 3.261 0 0 0 1.009 1.446 3.209 3.209 0 0 0 2.379.869l4.254-2.242Zm-7.5-.072a2.725 2.725 0 0 1-1.586.651 1.979 1.979 0 0 1-1.513-.723 3.137 3.137 0 0 1-.864-2.315 2.6 2.6 0 0 1 .432-1.59 4.13 4.13 0 0 1 1.369-1.085l2.162-1.231Z" fill-rule="evenodd"/><path data-name="Trazado 159" d="M78.636 15.76a4.8 4.8 0 0 1 .5-2.168 4.583 4.583 0 0 1 1.3-1.734 6.136 6.136 0 0 1 2.019-1.231 8.8 8.8 0 0 1 2.81-.433 10.762 10.762 0 0 1 3.749.723 15.14 15.14 0 0 1 .936 4.482l-1.153.361a10.866 10.866 0 0 0-1.8-2.964 3.3 3.3 0 0 0-2.377-1.085 1.868 1.868 0 0 0-1.37.579 2.084 2.084 0 0 0-.649 1.518 2.292 2.292 0 0 0 .721 1.663 7.163 7.163 0 0 0 2.234 1.372l2.162 1.085a7.83 7.83 0 0 1 1.659 1.23 4.206 4.206 0 0 1 1.081 1.518 5.276 5.276 0 0 1 .36 2.025 5.1 5.1 0 0 1-.649 2.531 4.973 4.973 0 0 1-1.658 1.807 7.532 7.532 0 0 1-2.235 1.155 8.651 8.651 0 0 1-2.451.362 9.5 9.5 0 0 1-3.027-.507 5.66 5.66 0 0 1-1.945-.867 17.131 17.131 0 0 1-.648-5.278l1.152-.144a10.837 10.837 0 0 0 2.019 3.543 4.913 4.913 0 0 0 1.437 1.231 3.4 3.4 0 0 0 1.657.433 2.3 2.3 0 0 0 1.587-.577 2.22 2.22 0 0 0 .575-1.518 2.592 2.592 0 0 0-.575-1.663 7.7 7.7 0 0 0-2.451-1.59q-4.973-2.459-4.974-5.857" fill-rule="evenodd"/><path data-name="Trazado 160" d="M48.363 10.484a4.777 4.777 0 0 1 1.658-.29 5.6 5.6 0 0 1 2.234.434 3.5 3.5 0 0 1 1.657 1.23 5.721 5.721 0 0 1 1.009 1.952 9.457 9.457 0 0 1 .361 2.675v7.591a4.332 4.332 0 0 0 .288 2.1 3.974 3.974 0 0 0 1.945.579v1.3h-9.3V26.75q1.369-.144 1.657-.579a3.606 3.606 0 0 0 .433-2.241v-6.8a5.768 5.768 0 0 0-.288-1.952 2.688 2.688 0 0 0-.649-1.156 2.527 2.527 0 0 0-1.873-.723 5.42 5.42 0 0 0-3.029 1.3l.072 9.471a3.82 3.82 0 0 0 .36 2.1q.29.434 1.658.579v1.3h-9.002V26.75a2.722 2.722 0 0 0 1.659-.507 4.9 4.9 0 0 0 .287-2.169v-7.156a4.409 4.409 0 0 0-.792-2.892 2.278 2.278 0 0 0-1.874-.8 5.09 5.09 0 0 0-3.026 1.3v9.543a4.647 4.647 0 0 0 .287 2.1 2.024 2.024 0 0 0 1.442.579v1.3h-9.229V26.75q1.73-.144 2.09-.579a3.614 3.614 0 0 0 .433-2.241v-8.313a4.261 4.261 0 0 0-.36-2.17 2.534 2.534 0 0 0-1.659-.723v-1.156a52.232 52.232 0 0 0 6.919-1.446v3.036l2.451-1.735 1.731-.939a5.4 5.4 0 0 1 1.73-.29 4.632 4.632 0 0 1 2.738.867 4.388 4.388 0 0 1 1.659 2.243l2.883-2.025Z" fill-rule="evenodd"/><path data-name="Trazado 161" d="M184.372 14.966a3.7 3.7 0 0 0-1.081 1.663v7.3q0 1.807.505 2.241a5.353 5.353 0 0 0 2.738.579v1.3h-10.738V26.75a3.283 3.283 0 0 0 2.017-.579 3.373 3.373 0 0 0 .505-2.241v-8.6a2.806 2.806 0 0 0-.433-1.88 3.694 3.694 0 0 0-1.729-.723V11.64a61.046 61.046 0 0 0 7.135-1.518v4.192h.144a12.089 12.089 0 0 1 2.163-2.964 3.221 3.221 0 0 1 2.162-1.157 2.783 2.783 0 0 1 1.946.723 2.138 2.138 0 0 1 .721 1.664 3.117 3.117 0 0 1-.576 1.88 2.547 2.547 0 0 1-1.369 1.084 1.344 1.344 0 0 1-1.227-.146 2.938 2.938 0 0 0-1.8-.866 1.63 1.63 0 0 0-1.081.433" fill-rule="evenodd"/><path data-name="Trazado 162" d="M173.921 15.617a8.136 8.136 0 0 0-1.728-2.82 8.5 8.5 0 0 0-2.812-1.879 9.622 9.622 0 0 0-3.748-.724 10.018 10.018 0 0 0-3.315.579 9.721 9.721 0 0 0-2.955 1.808 8.464 8.464 0 0 0-2.234 2.964 14.072 14.072 0 0 0-.865 4.192 8.9 8.9 0 0 0 .577 3.182 8.121 8.121 0 0 0 1.731 2.82 8.692 8.692 0 0 0 2.883 2.025 9.9 9.9 0 0 0 4.036.8 8.66 8.66 0 0 0 3.315-.651 7.876 7.876 0 0 0 2.955-1.736 8.509 8.509 0 0 0 2.018-2.964l.577-1.952.216-2.243a9.257 9.257 0 0 0-.649-3.4m-5.189 8.1a6.955 6.955 0 0 1-.72 2.025 2.555 2.555 0 0 1-1.009 1.012 2.715 2.715 0 0 1-1.082.216 2.4 2.4 0 0 1-1.657-.65 4.727 4.727 0 0 1-1.3-1.808 14.179 14.179 0 0 1-.793-2.748 20.251 20.251 0 0 1-.288-3.471 13.381 13.381 0 0 1 .288-2.892 9.577 9.577 0 0 1 .721-2.1 3.028 3.028 0 0 1 1.009-1.158 2.013 2.013 0 0 1 1.225-.434 2.577 2.577 0 0 1 1.658.579 3.421 3.421 0 0 1 1.153 1.662 9.844 9.844 0 0 1 .792 2.6 27.725 27.725 0 0 1 .217 3.687 23.888 23.888 0 0 1-.217 3.469" fill-rule="evenodd"/><path data-name="Trazado 163" d="M18.595 5.351a4.367 4.367 0 0 0-.432-2.458q-.359-.434-2.234-.579v-.94A33.48 33.48 0 0 0 21.695 0v23.931a3.843 3.843 0 0 0 .5 2.458 4.687 4.687 0 0 0 2.379.651v1.011h-8.789V27.04a5.067 5.067 0 0 0 2.378-.651 4.366 4.366 0 0 0 .432-2.458Z" fill-rule="evenodd"/><path data-name="Trazado 164" d="M11.244 25.377a6.12 6.12 0 0 1-2.306.434 5.95 5.95 0 0 1-2.019-.361 5.891 5.891 0 0 1-1.873-1.374 5.586 5.586 0 0 1-1.369-2.313 9.726 9.726 0 0 1-.577-3.472q4.686-.144 10.236-.649a1.172 1.172 0 0 0 .936-1.3 5.576 5.576 0 0 0-.5-2.24 6.637 6.637 0 0 0-1.224-1.88 5.993 5.993 0 0 0-1.875-1.3 4.817 4.817 0 0 0-2.306-.579 6.442 6.442 0 0 0-3.026.8 8.676 8.676 0 0 0-2.74 2.1 9.781 9.781 0 0 0-1.88 3.096A10.043 10.043 0 0 0 0 20.099a10.235 10.235 0 0 0 .5 3.253 9.691 9.691 0 0 0 1.513 2.676A7.258 7.258 0 0 0 4.4 27.835a7.431 7.431 0 0 0 3.243.724 6.009 6.009 0 0 0 2.74-.8 8.2 8.2 0 0 0 1.8-1.158 11.58 11.58 0 0 0 1.873-1.88l-.649-.867a7.077 7.077 0 0 1-2.162 1.518M3.964 14.604a4.276 4.276 0 0 1 .936-1.52 3.274 3.274 0 0 1 2.523-1.228 3.511 3.511 0 0 1 1.441.288 2.7 2.7 0 0 1 1.081.869 3.766 3.766 0 0 1 .938 2.746q0 .8-.938.8l-6.631.144a7.7 7.7 0 0 1 .649-2.1" fill-rule="evenodd"/></g></svg>